<?xml version="1.0" standalone="no"?>
<!DOCTYPE svg PUBLIC "-//W3C//DTD SVG 20010904//EN"
 "http://www.w3.org/TR/2001/REC-SVG-20010904/DTD/svg10.dtd">
<svg version="1.0" xmlns="http://www.w3.org/2000/svg"
 width="1976.000000pt" height="344.000000pt" viewBox="0 0 1976.000000 344.000000"
 preserveAspectRatio="xMidYMid meet">
<g transform="translate(0.000000,344.000000) scale(0.100000,-0.100000)"
fill="#fff" stroke="none">
<path d="M5912 3118 c-5 -7 -22 -49 -37 -93 -15 -44 -33 -93 -40 -110 -22 -52
-76 -188 -90 -225 -7 -19 -31 -78 -53 -130 -22 -52 -43 -105 -46 -117 -11 -35
-30 -44 -153 -69 -125 -25 -208 -31 -218 -14 -12 19 -35 10 -35 -13 0 -63 92
-101 236 -96 46 2 86 0 89 -3 4 -3 -14 -64 -39 -135 -53 -147 -146 -457 -146
-483 0 -10 -8 -24 -17 -31 -9 -8 -53 -63 -98 -124 -79 -105 -372 -417 -426
-453 -15 -9 -44 -29 -65 -44 -89 -60 -102 -45 -74 90 32 158 111 329 241 524
76 113 109 160 212 299 20 28 37 61 37 73 0 13 -17 41 -38 64 -30 32 -46 42
-70 42 -26 0 -37 -9 -78 -65 -26 -36 -52 -65 -57 -65 -4 0 -27 11 -50 24 -102
58 -289 77 -368 37 -111 -56 -361 -383 -430 -561 -16 -41 -35 -79 -42 -85 -6
-5 -38 -41 -69 -80 -95 -117 -292 -329 -318 -342 -28 -14 -42 -1 -35 32 2 11
7 43 9 70 9 92 28 209 36 225 4 8 10 33 14 55 7 39 39 162 73 275 89 303 131
469 153 605 24 152 12 226 -40 252 -38 19 -108 16 -156 -9 -88 -44 -246 -236
-368 -449 -20 -35 -41 -71 -46 -79 -56 -97 -119 -212 -124 -228 -7 -22 -34
-48 -41 -40 -7 7 27 141 65 258 40 122 80 272 80 298 0 37 -27 52 -94 52 -68
0 -96 -17 -96 -57 0 -11 -7 -40 -15 -64 -18 -51 -70 -256 -80 -315 -3 -22 -17
-53 -31 -69 -13 -16 -39 -48 -57 -72 -17 -23 -36 -43 -40 -43 -4 0 -4 30 0 68
15 125 9 202 -19 257 -14 28 -34 57 -44 66 -22 19 -95 35 -202 43 -95 8 -132
-11 -189 -97 -49 -73 -108 -186 -124 -236 -6 -20 -17 -49 -25 -66 -70 -160
-72 -353 -3 -434 29 -36 107 -58 184 -55 36 2 65 0 65 -3 0 -27 -180 -224
-259 -283 -114 -87 -174 -91 -211 -16 -55 114 -23 422 70 678 33 90 105 226
153 290 18 24 41 56 51 72 33 52 100 118 153 153 39 25 67 34 109 38 97 7 98
33 2 66 -77 28 -189 25 -253 -5 -53 -24 -137 -105 -205 -196 -50 -66 -147
-263 -188 -380 -72 -208 -113 -461 -93 -576 13 -74 68 -188 110 -228 58 -55
233 -88 312 -57 38 14 179 142 261 236 104 120 188 252 254 400 15 33 52 98
83 144 31 46 60 92 66 102 11 21 27 26 20 7 -8 -23 -66 -223 -71 -244 -2 -12
-13 -51 -23 -85 -30 -96 -45 -191 -37 -233 6 -32 14 -40 49 -57 23 -10 63 -19
89 -19 l47 0 26 58 c15 31 49 113 77 182 95 238 110 275 148 355 20 44 42 91
48 105 7 14 22 43 34 65 13 22 41 72 62 110 55 99 152 260 198 326 39 58 145
169 160 169 11 0 1 -135 -12 -170 -5 -14 -23 -78 -40 -143 -17 -65 -57 -200
-90 -300 -55 -172 -98 -332 -136 -512 -10 -47 -18 -127 -18 -196 -1 -108 1
-118 25 -155 21 -31 37 -43 81 -57 116 -36 183 -15 289 94 42 43 93 103 113
133 45 68 54 74 65 43 24 -62 116 -116 197 -117 62 0 112 30 199 119 33 33 63
61 67 61 4 0 8 -31 8 -69 0 -72 19 -142 48 -174 50 -55 168 -83 238 -57 31 12
174 130 236 196 22 23 57 66 77 96 20 29 57 81 84 115 26 34 70 95 98 135 l51
73 -4 -70 c-7 -111 10 -242 37 -296 61 -119 238 -185 363 -134 23 9 42 20 42
24 0 4 7 16 15 26 31 39 120 157 144 188 16 22 22 26 18 12 -7 -28 -48 -175
-57 -205 -10 -35 14 -78 48 -86 15 -3 40 -10 55 -16 35 -14 44 -5 56 52 46
232 388 924 511 1035 19 18 20 18 20 -3 0 -21 -23 -123 -39 -177 -6 -16 -12
-46 -15 -66 -3 -20 -10 -48 -15 -63 -6 -14 -9 -26 -6 -26 2 0 -5 -30 -16 -67
-49 -169 -63 -396 -30 -468 24 -52 47 -72 106 -89 77 -24 135 -7 188 55 23 27
45 49 48 49 4 0 10 -15 13 -34 13 -69 111 -135 202 -136 62 0 112 30 199 119
33 33 63 61 67 61 4 0 8 -31 8 -69 0 -72 19 -142 48 -174 50 -55 168 -83 238
-57 31 12 174 130 236 196 22 23 57 66 77 96 45 66 189 259 203 273 6 6 5 0
-1 -12 -6 -13 -10 -23 -7 -23 2 0 -6 -34 -19 -76 -33 -107 -49 -205 -41 -248
6 -32 14 -41 49 -57 23 -10 63 -19 89 -19 l47 0 26 58 c15 31 49 113 77 182
95 238 110 275 148 355 20 44 42 91 48 105 7 14 22 43 34 65 13 22 41 72 62
110 55 99 152 260 198 326 39 58 145 169 160 169 11 0 1 -135 -12 -170 -5 -14
-23 -78 -40 -143 -17 -65 -57 -200 -90 -300 -55 -172 -98 -332 -136 -512 -10
-47 -18 -127 -18 -196 -1 -108 1 -118 25 -155 21 -31 37 -43 81 -57 116 -36
183 -15 289 94 42 43 91 100 110 127 19 27 58 78 87 113 29 35 57 70 62 76 6
7 20 30 32 50 13 21 33 53 45 72 13 19 23 43 23 53 0 34 60 135 127 213 62 73
143 190 143 207 0 22 -31 3 -66 -39 -21 -25 -55 -64 -76 -85 -21 -21 -68 -76
-105 -121 -36 -45 -83 -100 -102 -122 -20 -23 -55 -63 -77 -90 -121 -145 -151
-180 -256 -295 -116 -127 -156 -160 -170 -137 -4 6 -5 21 -3 32 2 11 7 43 9
70 9 92 28 209 36 225 4 8 10 33 14 55 7 39 39 162 73 275 89 303 131 469 153
605 24 152 12 226 -40 252 -38 19 -108 16 -156 -9 -88 -44 -246 -236 -368
-449 -20 -35 -41 -71 -46 -79 -56 -97 -119 -212 -124 -228 -7 -22 -34 -48 -41
-40 -7 7 27 141 65 258 40 122 80 272 80 298 0 37 -27 52 -94 52 -68 0 -96
-17 -96 -57 0 -11 -8 -44 -18 -74 -11 -30 -31 -108 -46 -174 -16 -66 -39 -157
-52 -201 -13 -45 -24 -91 -24 -103 0 -11 -13 -35 -28 -53 -16 -18 -60 -76 -99
-128 -69 -93 -363 -404 -414 -438 -15 -9 -44 -29 -65 -44 -89 -60 -102 -45
-74 90 32 158 111 329 241 524 76 113 109 160 212 299 20 28 37 61 37 73 0 13
-17 41 -38 64 -30 32 -46 42 -70 42 -26 0 -37 -9 -78 -65 -26 -36 -52 -65 -57
-65 -4 0 -27 11 -50 24 -102 58 -289 77 -368 37 -107 -54 -363 -385 -426 -551
-49 -128 -242 -352 -268 -310 -11 18 -8 144 4 205 17 80 36 158 56 225 21 72
36 124 65 225 45 164 71 278 72 320 0 43 -4 52 -29 72 -22 18 -41 23 -90 23
-59 0 -65 -3 -127 -49 -83 -63 -109 -92 -208 -228 -45 -62 -85 -113 -89 -113
-9 0 13 86 63 245 34 107 134 326 169 371 5 5 16 37 24 70 9 32 21 75 26 94 6
19 19 73 30 120 11 47 28 114 38 150 52 187 52 203 9 230 -33 20 -83 26 -105
12 -28 -18 -164 -389 -218 -597 -8 -27 -23 -75 -35 -105 -12 -30 -22 -59 -24
-65 -1 -5 -17 -57 -36 -115 -18 -58 -36 -121 -40 -140 -5 -19 -17 -69 -28
-110 -26 -101 -60 -247 -67 -290 -3 -19 -12 -55 -20 -80 -7 -25 -17 -60 -20
-79 -13 -65 -333 -424 -417 -467 -27 -14 -31 -14 -48 1 -10 9 -26 37 -35 62
-23 58 -16 217 13 343 11 47 32 139 47 205 48 212 75 297 146 455 39 85 74
162 78 170 11 21 74 55 140 75 31 10 63 24 72 31 8 8 40 18 70 24 101 18 178
43 184 58 5 13 -9 14 -107 8 -62 -3 -150 -12 -195 -18 -45 -7 -86 -9 -89 -5
-8 7 32 149 107 386 40 126 50 210 26 229 -11 10 -94 42 -108 42 -4 0 -11 -6
-17 -12z m-3244 -1165 c17 -16 45 -40 62 -56 l33 -27 -5 -113 c-4 -90 -11
-131 -38 -212 -18 -55 -41 -117 -51 -137 -31 -61 -199 -163 -257 -156 -41 5
-67 50 -66 116 1 64 28 204 52 272 53 146 184 338 233 340 3 0 20 -12 37 -27z
m2184 -90 c10 -9 18 -23 18 -31 0 -16 -30 -60 -80 -119 -20 -23 -68 -86 -106
-140 -115 -162 -430 -461 -457 -434 -11 11 30 150 69 240 23 52 72 135 101
171 6 8 38 51 71 95 32 44 72 93 88 109 33 33 133 102 166 116 39 15 110 12
130 -7z m2790 0 c10 -9 18 -23 18 -31 0 -16 -30 -60 -80 -119 -20 -23 -68 -86
-106 -140 -115 -162 -430 -461 -457 -434 -11 11 30 150 69 240 23 52 72 135
101 171 6 8 38 51 71 95 32 44 72 93 88 109 33 33 133 102 166 116 39 15 110
12 130 -7z"/>
<path d="M16073 3112 c-28 -18 -164 -389 -218 -597 -8 -27 -23 -75 -35 -105
-12 -30 -23 -62 -25 -70 -2 -8 -20 -69 -40 -135 -20 -66 -41 -138 -47 -160
-26 -101 -35 -115 -163 -256 -200 -219 -234 -254 -246 -242 -6 6 -33 50 -60
99 -59 105 -112 243 -129 335 l-12 67 61 76 c91 115 206 294 227 354 22 62 20
65 -64 82 -74 16 -114 0 -184 -71 -141 -144 -208 -294 -208 -466 0 -95 3 -87
-107 -235 -40 -53 -73 -100 -73 -103 0 -4 -14 -25 -32 -47 -18 -23 -39 -54
-47 -69 -37 -67 -226 -295 -351 -423 -173 -177 -236 -223 -321 -233 -42 -5
-47 -3 -72 26 -38 46 -50 102 -44 206 10 173 120 437 242 584 65 78 184 171
218 171 31 0 77 -39 77 -64 0 -40 -63 -147 -122 -207 -57 -58 -176 -129 -217
-129 -25 0 -66 -34 -57 -48 12 -19 77 -26 126 -13 58 16 171 74 228 117 93 71
218 236 237 315 11 46 -17 84 -90 120 -60 29 -70 31 -137 26 -289 -25 -344
-51 -481 -230 -71 -94 -146 -240 -177 -347 -27 -90 -71 -150 -258 -355 -130
-142 -170 -175 -184 -152 -4 6 -5 21 -3 32 2 11 7 43 9 70 9 92 28 209 36 225
4 8 10 33 14 55 7 39 39 162 73 275 89 303 131 469 153 605 24 152 12 226 -40
252 -38 19 -108 16 -156 -9 -88 -44 -246 -236 -368 -449 -20 -35 -41 -71 -46
-79 -56 -97 -119 -212 -124 -228 -7 -22 -34 -48 -41 -40 -7 7 27 141 65 258
40 122 80 272 80 298 0 37 -27 52 -94 52 -68 0 -96 -17 -96 -57 0 -11 -8 -44
-18 -74 -11 -30 -31 -108 -46 -174 -16 -66 -39 -157 -52 -201 -13 -45 -24 -91
-24 -103 0 -11 -13 -35 -28 -53 -16 -18 -60 -76 -99 -128 -69 -93 -363 -404
-414 -438 -15 -9 -44 -29 -65 -44 -89 -60 -102 -45 -74 90 32 158 111 329 241
524 76 113 109 160 212 299 20 28 37 61 37 73 0 13 -17 41 -38 64 -30 32 -46
42 -70 42 -26 0 -37 -9 -78 -65 -26 -36 -52 -65 -57 -65 -4 0 -27 11 -50 24
-102 58 -289 77 -368 37 -114 -58 -362 -385 -434 -571 -57 -150 -79 -283 -57
-342 25 -63 116 -117 198 -118 62 0 112 30 199 119 33 33 63 61 67 61 4 0 8
-31 8 -69 0 -72 19 -142 48 -174 50 -55 168 -83 238 -57 31 12 174 130 236
196 22 23 57 66 77 96 45 66 189 259 203 273 6 6 5 0 -1 -12 -6 -13 -10 -23
-7 -23 2 0 -6 -34 -19 -76 -33 -107 -49 -205 -41 -248 6 -32 14 -41 49 -57 23
-10 63 -19 89 -19 l47 0 26 58 c15 31 49 113 77 182 95 238 110 275 148 355
20 44 42 91 48 105 7 14 22 43 34 65 13 22 41 72 62 110 55 99 152 260 198
326 39 58 145 169 160 169 11 0 1 -135 -12 -170 -5 -14 -23 -78 -40 -143 -17
-65 -57 -200 -90 -300 -55 -172 -98 -332 -136 -512 -10 -47 -18 -127 -18 -196
-1 -108 1 -118 25 -155 21 -31 37 -43 81 -57 115 -36 183 -14 288 93 41 42 93
103 116 136 22 32 44 59 50 59 5 0 10 -17 12 -38 7 -82 82 -186 165 -227 150
-75 354 -13 527 160 47 47 101 103 121 125 34 38 119 161 119 171 0 3 13 24
28 47 38 55 139 231 192 334 48 94 106 167 113 143 18 -61 33 -104 59 -165 37
-89 41 -97 76 -175 17 -36 37 -87 46 -113 19 -57 26 -41 -92 -218 -143 -213
-262 -483 -277 -626 -6 -56 -5 -64 12 -69 10 -3 36 -15 59 -26 58 -30 123 -22
194 24 83 54 91 63 181 203 99 153 155 261 170 330 21 92 23 281 4 348 -19 67
-14 127 13 169 33 52 262 345 262 336 0 -2 -6 -27 -14 -54 -8 -27 -18 -69 -21
-93 -3 -23 -11 -54 -16 -68 -5 -14 -16 -57 -25 -96 -9 -40 -26 -108 -39 -152
-13 -44 -36 -123 -51 -175 -15 -52 -35 -122 -44 -155 -16 -53 -16 -63 -4 -87
8 -16 26 -30 42 -34 15 -3 40 -10 55 -16 35 -14 44 -5 56 52 46 232 388 924
511 1035 19 18 20 18 20 -3 0 -21 -23 -123 -39 -177 -6 -16 -12 -46 -15 -66
-3 -20 -10 -48 -15 -63 -6 -14 -9 -26 -6 -26 2 0 -5 -30 -16 -67 -49 -169 -63
-396 -30 -468 24 -52 47 -72 106 -89 64 -20 131 -6 170 34 37 39 99 125 124
175 12 22 45 72 74 111 28 40 58 80 65 90 12 17 12 17 7 -6 -16 -69 -16 -238
-1 -309 25 -117 72 -154 196 -155 58 -1 84 4 114 20 45 24 254 194 255 207 1
5 52 73 115 151 62 78 126 162 141 187 15 24 31 46 35 49 7 5 104 149 147 219
13 20 39 78 59 129 35 88 37 92 67 92 17 0 50 -9 74 -21 39 -19 43 -24 43 -56
0 -38 -59 -236 -93 -313 -44 -101 -113 -311 -145 -441 -39 -160 -39 -378 0
-477 32 -79 68 -102 167 -104 110 -2 121 0 162 33 42 33 169 199 187 244 7 17
23 44 37 60 19 23 24 26 25 12 0 -27 69 -152 99 -181 58 -55 233 -88 312 -57
38 14 179 142 261 236 104 120 188 252 254 400 15 33 52 98 83 144 31 46 61
91 66 100 6 9 30 43 55 76 59 78 100 142 100 155 0 5 -9 10 -19 10 -12 0 -34
-21 -57 -52 -21 -29 -43 -58 -49 -64 -5 -6 -26 -31 -45 -57 -19 -25 -39 -47
-43 -47 -4 0 -4 30 0 68 15 125 9 202 -19 257 -14 28 -34 57 -44 66 -22 19
-95 35 -202 43 -95 8 -132 -11 -189 -97 -49 -73 -108 -186 -124 -236 -6 -20
-17 -49 -25 -66 -70 -160 -72 -353 -3 -434 29 -36 107 -58 184 -55 36 2 65 0
65 -3 0 -27 -180 -224 -259 -283 -114 -87 -174 -91 -211 -16 -55 114 -23 422
70 678 33 90 105 226 153 290 18 24 41 56 51 72 33 52 100 118 153 153 39 25
67 34 109 38 97 7 98 33 2 66 -77 28 -189 25 -253 -5 -53 -24 -137 -105 -205
-196 -48 -63 -146 -260 -185 -370 -31 -90 -85 -304 -85 -340 0 -39 -186 -308
-318 -458 -58 -67 -81 -74 -93 -30 -15 58 67 474 111 563 11 23 79 213 116
325 33 98 54 210 48 245 -17 95 -111 169 -254 201 -63 15 -70 19 -70 40 0 13
4 32 9 42 6 9 22 49 37 89 31 83 27 96 -35 113 -89 25 -150 6 -193 -57 -52
-76 -45 -176 16 -232 14 -14 26 -29 26 -35 0 -22 -81 -229 -130 -332 -37 -80
-67 -127 -118 -183 -37 -42 -97 -112 -132 -155 -74 -91 -111 -127 -235 -225
-134 -106 -182 -123 -203 -76 -17 37 -15 85 9 215 35 190 131 503 240 785 22
55 39 107 39 116 0 8 -21 26 -46 38 -56 29 -126 23 -148 -12 -14 -21 -117
-315 -178 -507 -17 -52 -39 -106 -50 -120 -237 -307 -354 -447 -388 -465 -37
-19 -41 -12 -42 72 -1 80 21 196 67 353 9 30 21 71 26 90 6 19 14 49 19 65 12
40 22 78 59 220 18 66 32 142 33 170 0 43 -4 52 -29 72 -22 18 -41 23 -90 23
-59 0 -65 -3 -126 -49 -36 -27 -82 -68 -103 -91 -49 -53 -174 -227 -174 -240
0 -6 -6 -10 -14 -10 -12 0 -10 17 10 93 14 50 36 121 49 157 14 36 25 72 25
81 0 15 122 261 141 285 4 5 16 37 24 70 9 32 21 75 26 94 6 19 19 73 30 120
11 47 28 114 38 150 52 187 52 203 9 230 -33 20 -83 26 -105 12z m-753 -648
c0 -9 -130 -206 -183 -276 -28 -37 -54 -65 -60 -61 -16 9 3 75 45 155 43 84
143 188 179 188 10 0 19 -3 19 -6z m3628 -511 c17 -16 45 -40 62 -56 l33 -27
-5 -113 c-4 -90 -11 -131 -38 -212 -18 -55 -41 -117 -51 -137 -31 -61 -199
-163 -257 -156 -41 5 -67 50 -66 116 1 64 28 204 52 272 53 146 184 338 233
340 3 0 20 -12 37 -27z m-6866 -90 c10 -9 18 -23 18 -31 0 -16 -30 -60 -80
-119 -20 -23 -68 -86 -106 -140 -115 -162 -430 -461 -457 -434 -11 11 30 150
69 240 23 52 72 135 101 171 6 8 38 51 71 95 32 44 72 93 88 109 33 33 133
102 166 116 39 15 110 12 130 -7z m3105 -766 c-3 -51 -12 -110 -21 -131 -9
-21 -16 -46 -16 -56 0 -35 -114 -245 -158 -292 -44 -47 -80 -64 -68 -32 3 8
13 45 21 81 8 36 21 80 29 97 7 17 19 51 26 76 19 72 164 350 182 350 7 0 9
-30 5 -93z"/>
<path d="M11609 2963 c-148 -216 -335 -417 -530 -569 -75 -58 -217 -152 -275
-182 -79 -40 -81 -49 89 428 61 170 63 185 37 207 -25 22 -103 43 -120 33 -6
-4 -26 -49 -44 -101 -18 -52 -37 -105 -43 -119 -6 -14 -40 -113 -76 -220 -36
-107 -92 -274 -125 -370 -56 -162 -125 -390 -174 -570 -11 -41 -31 -115 -44
-165 -68 -251 -132 -569 -136 -673 -3 -63 0 -76 16 -88 42 -30 83 -4 114 72
56 140 106 305 152 509 18 77 47 196 65 265 18 69 49 188 70 265 69 265 120
421 140 429 7 2 32 7 57 11 39 6 48 3 76 -20 42 -35 59 -72 87 -186 21 -82 26
-140 35 -400 20 -509 82 -777 200 -857 38 -25 88 -27 81 -2 -2 8 -8 51 -12 95
-4 44 -15 116 -24 160 -13 58 -19 162 -25 385 -11 398 -33 567 -92 685 -32 63
-99 145 -140 171 -41 26 -49 44 -19 44 27 0 138 59 248 132 175 116 544 532
543 612 -1 23 -34 52 -73 61 -22 6 -29 0 -58 -42z"/>
<path d="M2004 2982 c-11 -8 -54 -96 -54 -112 0 -5 -19 -14 -42 -20 -24 -6
-63 -17 -88 -26 -321 -107 -437 -142 -635 -193 -60 -16 -130 -36 -155 -45 -25
-9 -69 -19 -97 -22 -62 -8 -69 -25 -20 -54 42 -26 48 -26 180 14 61 19 132 37
157 41 73 11 255 72 385 127 69 30 263 98 280 98 3 0 -2 -17 -11 -37 -59 -142
-150 -402 -198 -573 -70 -244 -130 -465 -142 -515 -19 -85 -103 -395 -169
-625 -63 -222 -216 -595 -284 -694 -17 -24 -53 -58 -81 -76 -50 -32 -52 -33
-84 -17 -68 32 -147 158 -171 272 -21 103 -19 177 9 286 23 91 91 243 127 284
10 11 66 115 125 230 58 116 115 222 125 237 11 14 19 31 19 38 0 6 20 31 45
57 44 44 55 63 36 63 -25 0 -179 -131 -249 -210 -121 -139 -232 -286 -232
-307 0 -7 -4 -13 -9 -13 -5 0 -16 -17 -25 -37 -9 -21 -29 -63 -46 -93 -17 -30
-42 -93 -56 -140 -15 -47 -30 -94 -35 -105 -17 -43 -29 -201 -21 -275 10 -81
52 -180 100 -237 15 -17 39 -47 54 -66 51 -65 245 -120 362 -103 35 6 61 19
105 56 105 87 202 274 298 575 14 44 44 132 68 195 61 166 107 326 134 475 5
28 25 106 45 175 20 69 41 141 46 160 5 19 19 64 30 99 11 34 22 86 26 115 3
28 16 87 29 131 13 44 28 103 35 131 6 28 30 100 52 160 22 60 57 156 78 214
21 58 43 119 50 135 7 17 21 61 32 100 22 77 16 104 -29 124 -27 12 -83 14
-99 3z"/>
<path d="M17029 2658 c-67 -58 -116 -225 -71 -243 12 -5 27 5 52 33 19 22 51
47 70 55 33 13 130 106 130 125 0 25 -29 40 -90 46 -58 6 -68 4 -91 -16z"/>
</g>
</svg>
